<mxfile host="app.diagrams.net" modified="2023-11-03T08:50:26.389Z" agent="Mozilla/5.0 (Windows NT 10.0; Win64; x64; rv:109.0) Gecko/20100101 Firefox/119.0" etag="BGz483TE-UezWg9MVozf" version="22.0.8" type="github">
  <diagram name="Sivu-1" id="jNaYSMbeP0Z_qt4pjJCi">
    <mxGraphModel dx="906" dy="725" grid="1" gridSize="10" guides="1" tooltips="1" connect="1" arrows="1" fold="1" page="1" pageScale="1" pageWidth="827" pageHeight="1169" math="0" shadow="0">
      <root>
        <mxCell id="0" />
        <mxCell id="1" parent="0" />
        <mxCell id="fHiISs76fz-oC04-sptV-9" value="" style="edgeStyle=orthogonalEdgeStyle;rounded=0;orthogonalLoop=1;jettySize=auto;html=1;" parent="1" source="fHiISs76fz-oC04-sptV-1" target="fHiISs76fz-oC04-sptV-2" edge="1">
          <mxGeometry relative="1" as="geometry" />
        </mxCell>
        <mxCell id="fHiISs76fz-oC04-sptV-1" value="Aloitus HTML-sivu" style="ellipse;whiteSpace=wrap;html=1;" parent="1" vertex="1">
          <mxGeometry x="354" y="10" width="120" height="80" as="geometry" />
        </mxCell>
        <mxCell id="fHiISs76fz-oC04-sptV-10" value="" style="edgeStyle=orthogonalEdgeStyle;rounded=0;orthogonalLoop=1;jettySize=auto;html=1;" parent="1" source="fHiISs76fz-oC04-sptV-2" target="fHiISs76fz-oC04-sptV-3" edge="1">
          <mxGeometry relative="1" as="geometry" />
        </mxCell>
        <mxCell id="fHiISs76fz-oC04-sptV-2" value="&lt;div&gt;Pyydä käyttäjältä&lt;/div&gt;&lt;div&gt;&amp;nbsp;luvut&lt;br&gt;&lt;/div&gt;" style="shape=parallelogram;perimeter=parallelogramPerimeter;whiteSpace=wrap;html=1;fixedSize=1;" parent="1" vertex="1">
          <mxGeometry x="354" y="100" width="120" height="60" as="geometry" />
        </mxCell>
        <mxCell id="fHiISs76fz-oC04-sptV-11" value="" style="edgeStyle=orthogonalEdgeStyle;rounded=0;orthogonalLoop=1;jettySize=auto;html=1;" parent="1" source="fHiISs76fz-oC04-sptV-3" target="fHiISs76fz-oC04-sptV-4" edge="1">
          <mxGeometry relative="1" as="geometry" />
        </mxCell>
        <mxCell id="fHiISs76fz-oC04-sptV-3" value="Luo muuttuja" style="rounded=0;whiteSpace=wrap;html=1;" parent="1" vertex="1">
          <mxGeometry x="354" y="170" width="120" height="60" as="geometry" />
        </mxCell>
        <mxCell id="fHiISs76fz-oC04-sptV-12" value="" style="edgeStyle=orthogonalEdgeStyle;rounded=0;orthogonalLoop=1;jettySize=auto;html=1;" parent="1" source="fHiISs76fz-oC04-sptV-4" target="fHiISs76fz-oC04-sptV-5" edge="1">
          <mxGeometry relative="1" as="geometry" />
        </mxCell>
        <mxCell id="fHiISs76fz-oC04-sptV-4" value="&lt;div&gt;Lue muuttujaan&lt;/div&gt;&lt;div&gt;käyttäjän valinta&lt;br&gt;&lt;/div&gt;" style="rounded=0;whiteSpace=wrap;html=1;" parent="1" vertex="1">
          <mxGeometry x="354" y="240" width="120" height="60" as="geometry" />
        </mxCell>
        <mxCell id="fHiISs76fz-oC04-sptV-14" value="" style="edgeStyle=orthogonalEdgeStyle;rounded=0;orthogonalLoop=1;jettySize=auto;html=1;" parent="1" source="fHiISs76fz-oC04-sptV-5" target="fHiISs76fz-oC04-sptV-7" edge="1">
          <mxGeometry relative="1" as="geometry" />
        </mxCell>
        <mxCell id="RmFNih_TY_qP6DySXYq4-3" value="" style="edgeStyle=orthogonalEdgeStyle;rounded=0;orthogonalLoop=1;jettySize=auto;html=1;" edge="1" parent="1" source="fHiISs76fz-oC04-sptV-5" target="RmFNih_TY_qP6DySXYq4-1">
          <mxGeometry relative="1" as="geometry" />
        </mxCell>
        <mxCell id="fHiISs76fz-oC04-sptV-5" value="&lt;div&gt;Syötä&lt;/div&gt;&lt;div&gt;numerot&lt;/div&gt;&lt;div&gt;ensimmäinen pienempi&lt;/div&gt;&lt;div&gt;toinen suurempi numero&lt;br&gt;&lt;/div&gt;" style="rhombus;whiteSpace=wrap;html=1;" parent="1" vertex="1">
          <mxGeometry x="344.5" y="320" width="139" height="160" as="geometry" />
        </mxCell>
        <mxCell id="fHiISs76fz-oC04-sptV-15" value="" style="edgeStyle=orthogonalEdgeStyle;rounded=0;orthogonalLoop=1;jettySize=auto;html=1;" parent="1" source="fHiISs76fz-oC04-sptV-7" target="fHiISs76fz-oC04-sptV-8" edge="1">
          <mxGeometry relative="1" as="geometry" />
        </mxCell>
        <mxCell id="fHiISs76fz-oC04-sptV-7" value="&lt;div&gt;Tulostaa parilliset numerot ja niiden summan&lt;/div&gt;&lt;div&gt;sekä parittomat numerot ja niiden summan.&lt;br&gt;&lt;/div&gt;" style="shape=parallelogram;perimeter=parallelogramPerimeter;whiteSpace=wrap;html=1;fixedSize=1;" parent="1" vertex="1">
          <mxGeometry x="315.5" y="570" width="197" height="100" as="geometry" />
        </mxCell>
        <mxCell id="fHiISs76fz-oC04-sptV-8" value="The End" style="ellipse;whiteSpace=wrap;html=1;" parent="1" vertex="1">
          <mxGeometry x="354" y="690" width="120" height="80" as="geometry" />
        </mxCell>
        <mxCell id="RmFNih_TY_qP6DySXYq4-6" value="" style="edgeStyle=orthogonalEdgeStyle;rounded=0;orthogonalLoop=1;jettySize=auto;html=1;exitX=0.5;exitY=1;exitDx=0;exitDy=0;" edge="1" parent="1" source="RmFNih_TY_qP6DySXYq4-1">
          <mxGeometry relative="1" as="geometry">
            <mxPoint x="502.5" y="620" as="targetPoint" />
            <Array as="points">
              <mxPoint x="660" y="620" />
            </Array>
          </mxGeometry>
        </mxCell>
        <mxCell id="RmFNih_TY_qP6DySXYq4-1" value="&lt;div&gt;Eriyttää numerot parillisiksi&lt;/div&gt;&lt;div&gt;&amp;nbsp;ja parittomiksi&lt;/div&gt;" style="shape=parallelogram;perimeter=parallelogramPerimeter;whiteSpace=wrap;html=1;fixedSize=1;" vertex="1" parent="1">
          <mxGeometry x="560" y="366.88" width="200" height="66.25" as="geometry" />
        </mxCell>
      </root>
    </mxGraphModel>
  </diagram>
</mxfile>
